<svg width="31" height="32" viewBox="0 0 31 32" fill="none" xmlns="http://www.w3.org/2000/svg">
<rect width="31" height="32" rx="15.5" fill="#0077B5"/>
<path d="M24.1055 23.5497C23.0883 23.5247 22.0953 23.5247 21.0781 23.5497C20.8602 23.5497 20.8117 23.4997 20.8117 23.2747C20.8117 21.4247 20.8117 19.5497 20.8117 17.6997C20.8117 17.2747 20.7875 16.8497 20.6664 16.4497C20.3031 15.1497 18.85 14.6747 17.8086 15.5497C17.2516 15.9997 17.0336 16.6247 17.0336 17.3747C17.0336 19.1247 17.0336 20.8747 17.0336 22.6247C17.0336 22.8497 17.0094 23.0747 17.0336 23.3247C17.0578 23.5247 16.9609 23.5747 16.7914 23.5497C15.75 23.5497 14.7328 23.5497 13.6914 23.5497C13.4977 23.5497 13.4492 23.4997 13.4492 23.2997C13.4734 21.7247 13.4734 20.1497 13.4734 18.5497C13.4734 16.5997 13.4734 14.6497 13.4492 12.7247C13.4492 12.4997 13.4977 12.4497 13.6914 12.4497C14.7328 12.4497 15.75 12.4497 16.7914 12.4497C16.9852 12.4497 17.0336 12.4997 17.0336 12.6997C17.0336 13.0997 17.0336 13.4997 17.0336 13.9747C17.1063 13.8997 17.1305 13.8747 17.1547 13.8497C18.0992 12.4247 19.4313 12.0247 21.0055 12.2747C22.8219 12.5747 23.9844 13.8747 24.275 15.8747C24.3477 16.3497 24.3719 16.8247 24.3719 17.2997C24.3719 19.2997 24.3719 21.2747 24.3719 23.2747C24.3719 23.4747 24.3234 23.5497 24.1055 23.5497Z" fill="white"/>
<path d="M11.5118 18.0002C11.5118 19.7502 11.5118 21.5002 11.5118 23.2502C11.5118 23.4752 11.4634 23.5502 11.2454 23.5502C10.2282 23.5252 9.21104 23.5502 8.19385 23.5502C8.0001 23.5502 7.95166 23.5002 7.95166 23.3002C7.95166 19.7752 7.95166 16.2252 7.95166 12.7002C7.95166 12.5252 8.0001 12.4502 8.19385 12.4502C9.23525 12.4502 10.2767 12.4502 11.3181 12.4502C11.536 12.4502 11.5603 12.5252 11.5603 12.7252C11.5118 14.4752 11.5118 16.2252 11.5118 18.0002Z" fill="white"/>
<path d="M11.6814 9.55001C11.4392 10.55 10.4462 11.125 9.30796 10.925C8.09702 10.725 7.41889 9.50001 7.85483 8.30001C8.14546 7.55001 8.8478 7.10001 9.74389 7.12501C11.1001 7.10001 11.9962 8.22501 11.6814 9.55001Z" fill="white"/>
</svg>
