<svg width="18" height="25" viewBox="0 0 18 25" fill="none" xmlns="http://www.w3.org/2000/svg">
<path fill-rule="evenodd" clip-rule="evenodd" d="M3.13934 0.272383C4.14463 -0.177386 4.57024 0.0125741 5.63036 0.252473C5.98483 0.409141 6.25606 0.637289 6.32297 0.979676C6.71856 3.002 6.77829 4.78965 6.69147 6.64422C6.64022 7.74547 5.03405 8.32416 4.19196 9.03602C4.34373 12.2249 6.97805 16.8107 9.66228 18.5109C10.6999 18.1372 12.0038 17.0359 12.9833 17.5418C14.6326 18.394 16.151 19.3396 17.7046 20.6935C17.9677 20.9226 18.0297 21.2715 17.9882 21.6566C17.6658 22.6949 17.5874 23.1189 16.7254 23.8043C8.39884 30.4249 -6.50948 4.58859 3.13933 0.272386L3.13934 0.272383Z" fill="black"/>
</svg>
